<svg xmlns="http://www.w3.org/2000/svg" xmlns:xlink="http://www.w3.org/1999/xlink" version="1.1" x="0px" y="0px" viewBox="0 0 207.316 85.3125" enable-background="new 0 0 207.316 68.25" xml:space="preserve"><g><path fill="white" d="M20.412,68.25H0V0h20.412l12.879,20.409L87.483,4.365h95.656c13.331,0,24.177,10.846,24.177,24.177v11.165   c0,13.332-10.846,24.178-24.177,24.178H87.483l-0.208-0.062L33.291,47.841L20.412,68.25z M3,65.25h15.757l13.208-20.931   l55.952,16.565h95.221c11.677,0,21.177-9.5,21.177-21.178V28.542c0-11.677-9.5-21.177-21.177-21.177H87.918L31.966,23.93L18.757,3   H3V65.25z"/></g><g><rect fill="white" x="1.5" y="32.626" width="31.214" height="3"/></g><g><path fill="white" d="M138,30.684c0.844,0,1.633,0.228,2.315,0.619l6.87-11.843c-5.488-3.18-12.473-3.427-18.372-0.036l6.837,11.897   C136.343,30.918,137.143,30.684,138,30.684z"/></g><g><path fill="white" d="M142.67,35.358c0,1.739-0.954,3.254-2.365,4.058l6.817,11.858c5.899-3.391,9.2-9.549,9.216-15.892L142.67,35.358z"/></g><g><path fill="white" d="M133.327,35.356c0-0.005,0.002-0.01,0.002-0.015l-13.73-0.025c-0.009,3.121,0.775,6.286,2.444,9.188   c1.667,2.903,4.009,5.173,6.708,6.737l6.881-11.864C134.254,38.565,133.327,37.071,133.327,35.356z"/></g><g><circle fill="white" cx="138" cy="35.316" r="3.177"/></g></svg>