<svg xmlns="http://www.w3.org/2000/svg" xmlns:xlink="http://www.w3.org/1999/xlink" version="1.1" x="0px" y="0px" viewBox="0 0 100 125" enable-background="new 0 0 100 100" xml:space="preserve"><circle cx="60.248" cy="19.686" r="1.907"/><path d="M31.979,79.958c-0.128,0.447,0.13,0.913,0.576,1.041c0.078,0.023,0.156,0.033,0.233,0.033c0.365,0,0.702-0.24,0.808-0.609  c0.771-2.688,0.062-4.895-0.615-6.219c0.434-0.014,0.87-0.029,1.309-0.044c0.414,0.635,1.385,2.389,0.905,4.322  c-0.112,0.451,0.163,0.907,0.614,1.019c0.068,0.018,0.136,0.025,0.203,0.025c0.377,0,0.721-0.255,0.816-0.639  c0.48-1.936-0.09-3.68-0.641-4.793c4.391-0.154,8.96-0.332,13.496-0.538c2.865-0.13,5.756-0.275,8.618-0.428  c0.935,2.599,0.491,4.427,0.483,4.459c-0.124,0.446,0.136,0.908,0.582,1.034c0.077,0.022,0.153,0.032,0.229,0.032  c0.367,0,0.704-0.242,0.81-0.612c0.026-0.095,0.564-2.112-0.351-5.007c0.4-0.022,0.798-0.044,1.196-0.066  c0.945,2.1,1.166,4.086,0.648,5.917c-0.054,0.188-0.092,0.324-0.076,0.505c0.041,0.439,0.421,0.817,0.856,0.817  c0.023,0,0.046-0.001,0.069-0.003c0.462-0.043,0.813-0.398,0.77-0.861c0.579-2.046,0.405-4.218-0.491-6.475  c16.613-0.948,31.017-2.068,31.199-2.082c0.463-0.036,0.81-0.442,0.773-0.905c-0.036-0.462-0.423-0.79-0.905-0.773  c-0.182,0.015-14.671,1.141-31.338,2.09c2.056-1.665,3.682-3.876,4.779-5.385c0.45-0.617,0.638-0.571,1.329-0.398  c0.74,0.182,1.854,0.458,3.128-0.572c2.317-1.876,3.823-9.734,3.018-13.255c-0.321-1.402-1.122-2.288-1.896-3.145  c-1.261-1.394-2.691-2.973-2.691-7.577c0-8.043,0-21.506-6.475-25.989c-4.984-3.45-9.051-2.375-12.02-1.589  c-0.897,0.237-1.671,0.442-2.357,0.502c-0.695,0.059-2.123-0.743-3.379-1.452c-0.94-0.531-1.911-1.08-2.897-1.495  c-1.755-0.739-5.024-1.045-5.84-0.335l-0.431,0.429l0.135,0.507c0.171,0.645,0.899,0.841,1.695,1  c2.417,0.483,4.222,1.781,5.57,3.361c0.006,0.006,0.01,0.014,0.016,0.02c1.267,1.492,2.13,3.234,2.703,4.787  c1.882,5.096,1.526,10.329,0.712,11.365c-0.931,1.184-1.8,1.829-3.24,2.898c-2.256,1.675-6.033,4.478-13.573,12.075  C20.171,57.905,20.77,69.553,21.21,72.87c-9.017,0.239-15.265,0.342-15.382,0.343C5.363,73.221,4.993,73.604,5,74.068  c0.008,0.46,0.383,0.828,0.841,0.828c0.005,0,0.009,0,0.014,0c0.156-0.002,11.216-0.184,25.215-0.63  C31.596,75.036,32.778,77.173,31.979,79.958z M73.368,51.964c0.71,3.104-0.792,10.242-2.436,11.572  c-0.626,0.505-1.018,0.406-1.663,0.247c-0.13-0.032-0.273-0.065-0.422-0.094c2.205-3.755,3.271-6.84,2.056-9.361  c-0.637-1.324-0.206-3.778,0.27-5.543c0.234,0.28,0.467,0.541,0.692,0.789C72.58,50.365,73.146,50.99,73.368,51.964z M22.993,66.26  c0.003-0.011,0.01-0.019,0.012-0.03c0.642-2.982,6.098-6.802,8.116-7.035c3.281-0.378,9.942-2.766,14.091-9.319  c0.249-0.393,0.131-0.913-0.261-1.161c-0.393-0.248-0.913-0.131-1.161,0.261c-3.817,6.029-10.082,8.228-12.861,8.548  c-1.785,0.206-4.765,1.976-6.944,4.175c1.25-4.156,3.67-8.945,8.251-13.561c7.45-7.507,11.163-10.263,13.382-11.909  c1.499-1.113,2.49-1.848,3.56-3.21c1.394-1.774,1.494-7.705-0.456-12.987c-0.483-1.307-1.159-2.732-2.072-4.073  c1.517-0.152,3.539-0.443,4.634-0.768c0.003-0.001,0.006-0.004,0.009-0.005c0.349-0.084,0.7-0.171,1.066-0.267  c2.948-0.78,6.288-1.662,10.632,1.345c5.75,3.981,5.75,17.397,5.75,24.605c0,2.877,0.521,4.749,1.221,6.11  c-0.46,1.34-1.76,5.614-0.573,8.079c0.946,1.966,0.041,4.71-3.225,9.782c-1.456,2.002-3.884,5.334-6.858,6.525  c-0.017,0.007-0.028,0.021-0.044,0.029c-3.198,0.174-6.442,0.338-9.654,0.484c-9.387,0.426-18.927,0.735-26.697,0.948  C22.77,71.765,22.572,69.388,22.993,66.26z"/><path d="M94.088,82.945c-0.225,0.019-22.72,1.896-42.145,3.271c-19.409,1.373-44.926,1.986-45.181,1.992  c-0.465,0.011-0.833,0.397-0.822,0.861c0.011,0.458,0.386,0.822,0.841,0.822c0.007,0,0.014,0,0.02,0  c0.256-0.007,25.811-0.62,45.26-1.996c19.436-1.376,41.942-3.254,42.167-3.274c0.463-0.038,0.807-0.445,0.768-0.908  C94.958,83.249,94.546,82.906,94.088,82.945z"/></svg>