<svg xmlns="http://www.w3.org/2000/svg" xmlns:xlink="http://www.w3.org/1999/xlink" version="1.1" x="0px" y="0px" viewBox="0 0 100 125" enable-background="new 0 0 100 100" xml:space="preserve"><path d="M93.736,52.553c-0.363-1.484-0.774-3.164-1.11-5.123C92.449,25.765,78.967,8.077,60.54,5.353  c-12.394-1.831-25.1,3.536-33.942,14.301c-6.299,6.731-9,12.983-11.613,19.028c-1.505,3.483-2.927,6.774-4.999,10.168  C4.268,58.219,3.621,66.324,7.951,74.36C13.416,84.505,26.988,95.001,48.954,95c0.948,0,1.916-0.019,2.895-0.06  c18.509-0.756,34.007-9.333,39.484-21.851C96.097,62.201,95.107,58.155,93.736,52.553z M51.974,92.164  c-1.428-0.011-2.86-0.109-4.29-0.321c-0.081-0.012-0.161-0.03-0.242-0.043c-9.356-1.458-17.522-7.086-23.011-15.879  c-5.562-8.911-7.713-19.992-6.056-31.2c1.522-10.302,6.098-19.564,12.963-26.37c1.264-1.211,2.595-2.365,3.985-3.46  c0.113-0.089,0.222-0.182,0.336-0.271l-0.002-0.003c6.046-4.499,12.906-6.863,19.874-6.863c1.507,0,3.019,0.11,4.529,0.334  c9.458,1.397,17.715,7.052,23.253,15.922c5.561,8.911,7.713,19.991,6.056,31.2c-1.656,11.209-6.92,21.194-14.821,28.116  c-4.777,4.184-10.173,6.934-15.791,8.142C56.556,91.821,54.293,92.06,51.974,92.164z M18.469,37.195  c-0.708,2.363-1.261,4.799-1.631,7.299c-1.71,11.574,0.518,23.027,6.275,32.25c2.81,4.503,6.302,8.205,10.282,10.997  C24.89,83.468,18.852,76.265,16.19,66.802C13.523,57.319,14.508,46.848,18.469,37.195z M14.696,67.224  c0.81,2.88,1.926,5.554,3.307,8.018c-0.234-0.075-0.47-0.153-0.7-0.211c-1.954-0.498-3.291-0.701-4.267-0.85  c-1.649-0.251-1.967-0.304-2.628-1.231c-5.223-9.741-1.267-17.985,3.541-25.858C12.701,53.886,12.881,60.774,14.696,67.224z   M12.801,75.716c0.945,0.144,2.239,0.342,4.119,0.82c0.774,0.197,1.589,0.513,2.413,0.894c4.065,6.13,9.986,10.707,17.333,13.425  c-10.62-2.38-19.481-7.762-24.631-15.264C12.273,75.633,12.523,75.674,12.801,75.716z M70.862,88.046  c1.621-1.047,3.196-2.226,4.709-3.551c8.178-7.165,13.624-17.484,15.335-29.057c0.1-0.676,0.183-1.351,0.257-2.026  c1.278,5.244,1.929,8.668-2.361,18.474C85.755,78.848,79.293,84.483,70.862,88.046z"/><path d="M21.623,44.33c-1.521,10.296,0.462,20.488,5.584,28.695c4.729,7.576,11.613,12.622,19.547,14.407  c0.703,0.158,1.411,0.3,2.13,0.407c1.414,0.209,2.83,0.312,4.241,0.312c7.397,0,14.652-2.844,20.794-8.223  c7.278-6.376,12.124-15.557,13.645-25.854c1.521-10.297-0.462-20.488-5.585-28.695c-5.148-8.248-12.846-13.508-21.677-14.813  c-8.609-1.27-17.279,1.379-24.487,7.454c-0.182,0.153-0.367,0.299-0.548,0.457C27.991,24.852,23.145,34.034,21.623,44.33z   M36.292,19.645c5.853-5.128,12.753-7.838,19.777-7.838c1.334,0,2.672,0.098,4.008,0.295c8.372,1.237,15.684,6.244,20.587,14.098  c4.928,7.895,6.833,17.713,5.365,27.646C84.56,63.78,79.897,72.628,72.896,78.76c-6.966,6.101-15.416,8.78-23.785,7.542  c-0.886-0.131-1.758-0.313-2.619-0.528c-7.272-1.81-13.584-6.548-17.967-13.571c-4.928-7.895-6.834-17.713-5.365-27.646  c1.454-9.84,6.048-18.611,12.939-24.736C36.164,19.764,36.226,19.702,36.292,19.645z"/><path d="M47.756,40.05l-6.035,5.937l11.793,24.494l16.487-15.362l-4.818-10.092l6.244-5.736l7.558,13.15l2.993-1.719L72.27,33.83  l-8.641,7.939l-5.631-11.794l-7.659,7.535l-6.42-12.689l-6.205,5.244l-7.815,6.604l2.228,2.636l6.216-5.253l4.469-3.776  L47.756,40.05z M65.795,54.321L54.591,64.76l-8.688-18.045l11.067-10.886L65.795,54.321z"/></svg>