<svg xmlns="http://www.w3.org/2000/svg" xmlns:xlink="http://www.w3.org/1999/xlink" version="1.1" x="0px" y="0px" viewBox="0 0 100 125" enable-background="new 0 0 100 100" xml:space="preserve"><path d="M86.054,46.823l-4.003,7.508v-6.503l7.443-11.616l-0.867-0.555l-6.576,10.263v-5.712l4.878-6.874l-0.42-0.298l-0.421-0.298  l-3.698,5.212l1.8-3.375l-0.455-0.242l-0.455-0.242l-1.23,2.306v-1.445l3.652-8.08l-0.47-0.212l-0.095-0.043l1.343-2.095  l-0.867-0.556l-3.564,5.561v-4.646l2.105-2.966l-0.42-0.298l-0.421-0.298l-1.264,1.781V20.51h-1.02l2.019-4.465L82.11,15.62  l-2.484,5.495V10.262h-1.03v8.293l-1.679-3.598l-0.467,0.218l-0.467,0.218l2.612,5.598v4.881l-0.591,0.276l0.591,1.267v3.134  l-4.12-8.556l1.032-1.61l-0.867-0.555l-0.689,1.076l-0.576-1.196l-0.464,0.223l-0.463,0.223l0.851,1.768l-0.159,0.249v-0.554h-1.287  v2.563l-0.775,1.21l-0.06-0.083l-0.419,0.3l-0.418,0.3l0.299,0.417l-0.826,1.29l-0.025-0.055l-0.467,0.218l-0.045,0.021v-3.897  l4.221-5.949l-0.841-0.596l-3.381,4.764v-2.588l3.192-7.061l-0.939-0.424l-2.252,4.982V7.06h-0.515h-0.515v7.586l-1.502-3.218  l-0.467,0.218l-0.466,0.218l2.435,5.218v8.764l-3.557-7.385l0.088-0.137l-0.222-0.142l-1.118-2.321l-0.464,0.223l-0.463,0.223  l1.003,2.082l-1.986,3.1l-0.293-0.408l-0.246,0.177v-3.084l1.619-2.282l-0.841-0.596l-1.852,2.609h-0.214v0.302l-1.315,1.852v-2.588  l3.192-7.061l-0.939-0.424l-2.252,4.982V5h-0.515h-0.515v7.586l-1.502-3.218l-0.467,0.218l-0.466,0.218l2.435,5.218v8.764  l-4.809-9.985l-0.464,0.223l-0.463,0.223l5.108,10.605l-0.196,0.091l-0.466,0.218l1.29,2.765v0.876l-5.988-8.353l1.363-2.126  l-0.433-0.277l-0.434-0.278l-1.141,1.781l-0.379-0.528l-0.837,0.6l0.617,0.861l-3.786,5.909V21.84l4.221-5.948l-0.84-0.596  l-3.382,4.765v-2.59l3.192-7.06l-0.938-0.424l-2.253,4.984V5H45.66h-0.515v7.586l-1.502-3.218L42.71,9.803l2.435,5.218v8.763  l-0.921-1.912v-3.968H43.58h-0.644v1.294l-2.6-5.398l-0.928,0.447l3.528,7.326v4.149l-3.06-4.269l0.685-1.07l-0.867-0.555  l-0.464,0.724l-1.098-1.531l-0.419,0.3l-0.418,0.3l1.336,1.864l-4.464,6.966V23.9l4.221-5.948l-0.84-0.596l-3.382,4.765v-2.59  l3.192-7.06l-0.938-0.424l-2.253,4.984V7.06h-0.515h-0.515v7.586l-1.502-3.218l-0.933,0.436l2.435,5.218v8.763l-4.808-9.983  l-0.928,0.447l5.736,11.911v0.298l-0.286-0.129l-0.576,1.273l-2.66-3.71v-1.702l0.116-0.181l-0.116-0.074v-2.376H28.33v2.538  l-1.424-1.987l0.502-0.707l-0.42-0.298l-0.42-0.298l-0.296,0.418l-0.144-0.201l-0.419,0.3l-0.418,0.3l0.35,0.489l-2.762,3.893  v-2.898l3.423-7.571l-0.938-0.424l-2.484,5.495V9.812h-1.03v8.294l-1.679-3.598l-0.466,0.218l-0.467,0.218l2.613,5.598v9.558  l-0.873-1.812V20.51h-1.287v5.104l-3.061-6.356l-0.464,0.223l-0.464,0.223l3.99,8.284v1.636l-1.825-3.911l-0.467,0.218l-0.466,0.218  l2.758,5.912v0.357l-5.419-7.561l-0.837,0.6l6.256,8.728v6.393l-3.096-4.67l-0.191,0.127l-2.446-5.079l-0.928,0.447l6.662,13.833  v3.528L11.358,37.14l-0.837,0.6l9.168,12.79v7.504l-5.769-8.702l-0.858,0.569l6.627,9.996v19.985h0.644h0.644V56.52l0.366-0.687  l0.506,0.764v7.026h1.03V58.15l5.452,8.223v22.702h1.287V62.546l3.521-6.603v1.34h0.515h0.515v-3.271l1.057-1.981l-0.909-0.485  l-0.147,0.276v-6.265l0.304-0.475l8.464,11.807v10.308l-7.811-11.783l-0.859,0.569l7.769,11.72c-3.869,0.562-4.83,1.341-5.16,1.958  v0.001c-0.311,0.58-0.367,1.062-0.173,1.471c0.331,0.696,1.234,0.872,2.279,1.075c0.983,0.192,2.098,0.409,2.786,1.059  c0.289,0.273,0.691,0.481,1.168,0.648V95h0.644h0.644V74.224c0.872,0.138,1.889,0.197,3.02,0.197c1.976,0,4.273-0.166,6.626-0.335  c1.238-0.09,2.468-0.179,3.635-0.24c0.755-0.04,1.416-0.096,2.033-0.162V95h0.643h0.644V73.51c1.879-0.317,2.945-0.823,3.366-1.586  c0.345-0.625,0.267-1.368-0.239-2.271c-0.426-0.76-1.602-1.303-3.126-1.691v-3.264l4.42-8.288l6.606,9.965v22.701h1.287V62.546  l4.182-7.841l1.275,1.923v7.444h0.515h0.514v-5.891l1.138,1.716v19.984h0.643h0.644V56.52l4.912-9.213L86.054,46.823z   M67.262,52.629l-0.909-0.485l-1.206,2.261l-0.425,0.282l-0.429,0.284l0.306,0.461l-3.773,7.075V53.39l4.414-6.888l2.845,3.97v6.811  h0.515h0.515v-5.375l2.737,3.818v8.783l-6.055-9.133L67.262,52.629z M53.29,73.351c-1.964,0.142-3.881,0.28-5.521,0.28  c-1.455,0-2.685-0.113-3.545-0.425v-0.55c1.644,0.712,5.541,0.433,9.028,0.181c1.034-0.074,2.061-0.149,3.035-0.2  c1.37-0.072,2.441-0.199,3.251-0.379v0.53c-0.825,0.173-1.879,0.293-3.225,0.363C55.344,73.204,54.32,73.277,53.29,73.351z   M39.185,70.993c-0.137-0.287-0.091-0.637,0.14-1.068c0.313-0.586,1.397-1.046,3.263-1.39l0.313,0.472  c-2.385,0.413-2.982,0.901-3.121,1.161h-0.001c-0.146,0.274-0.19,0.477-0.129,0.605c0.126,0.266,0.748,0.386,1.406,0.515  c0.591,0.115,1.275,0.261,1.881,0.551v0.58c-0.58-0.342-1.312-0.496-1.979-0.626C40.134,71.632,39.422,71.494,39.185,70.993z   M57.708,17.36L57.708,17.36L57.708,17.36z M57.708,21.676L57.708,21.676L57.708,21.676z M68.599,19.419L68.599,19.419  L68.599,19.419z M68.599,23.735L68.599,23.735L68.599,23.735z M78.596,51.95l-0.757-0.404l-0.613,1.15l-2.089-3.152l2.323-3.625  l1.137,1.587V51.95z M37.236,38.862l-2.811,4.386l-0.257-0.358v-5.146l0.344-0.645l0.678-0.955l-0.122-0.087l0.592-1.11l2.024,4.202  L37.236,38.862z M34.771,35.846L34.771,35.846L34.771,35.846z M25.889,47.307l-0.909-0.485l-0.753,1.413l-1.348-1.881v-1.496  l1.773-2.767l3.679,7.638v4.231l-3.434-4.79L25.889,47.307z M22.878,34.766l3.155-4.924l2.296,4.921v1.391l-0.344-0.221  l-0.434-0.278l-2.773,4.327l-0.22-0.456l2.883-5.405l-0.909-0.485l-2.527,4.739l-0.7-1.453l2.549-3.591l-0.42-0.298l-0.42-0.298  l-2.136,3.01V34.766z M32.614,39.775l0.525,0.792v0.886l-0.862-1.203L32.614,39.775z M33.654,40.411L33.654,40.411L33.654,40.411z   M32.004,38.855l-0.851,1.199l-0.188,0.135l0.046,0.065l-1.394,1.965v-4.174l0.75-1.659L32.004,38.855z M22.878,42.68l1.081-2.026  l0.168,0.348l-1.248,1.948V42.68z M28.974,34.924L28.974,34.924L28.974,34.924z M28.33,47.355l-3.026-6.283l3.026-4.722V47.355z   M29.618,35.544v-0.29l0.078,0.117L29.618,35.544z M21.664,33.515l-0.052,0.025l0.236-0.523v0.88L21.664,33.515z M23.405,39.503  l-0.526,0.987v-2.08L23.405,39.503z M22.364,42.55L22.364,42.55L22.364,42.55z M22.878,48.121l0.808,1.127l-0.808,1.515V48.121z   M33.654,32.466L33.654,32.466L33.654,32.466z M33.139,37.256l-0.496,0.698l-1.775-2.677l1.612-3.565l0.659,0.919V37.256z   M28.296,31.397l-0.306,0.203l-1.299-2.784l1.639-2.557v5.189L28.296,31.397z M22.364,34.615L22.364,34.615L22.364,34.615z   M22.364,32.356L22.364,32.356L22.364,32.356z M21.848,37.198l-0.872,1.229v-2.445L21.848,37.198z M21.129,45.68l-0.153,0.238  v-0.451L21.129,45.68z M21.774,46.581l0.074,0.104v6.01l-0.873,1.636v-6.504L21.774,46.581z M28.974,55.741L28.974,55.741  L28.974,55.741z M28.974,52.711L28.974,52.711L28.974,52.711z M29.618,43.998l2.029-2.859l1.493,2.082v2.035l-3.521,5.495V43.998z   M44.224,41.706v-4.588l0.921,1.389v1.901L44.224,41.706z M43.58,36.877L43.58,36.877L43.58,36.877z M45.66,38.352L45.66,38.352  L45.66,38.352z M45.145,36.643l-0.531-0.801l0.531-1.175V36.643z M43.58,43.503L43.58,43.503L43.58,43.503z M44.224,43.486  l0.921-1.298v7.857l-0.921,1.437V43.486z M45.66,35.556L45.66,35.556L45.66,35.556z M45.66,30.406L45.66,30.406L45.66,30.406z   M45.145,32.166l-0.921,2.037v-4.916l0.921,1.285V32.166z M81.407,32.222L81.407,32.222L81.407,32.222z M58.223,47.324l1.315,2.729  v5.069l-1.315-1.834V47.324z M58.223,35.685l1.315-2.465v14.461l-1.315-2.729V35.685z M73.189,30.105l0.925,1.29l-0.012,0.006  l0.469,0.974l-1.432,3.167v-5.344L73.189,30.105z M74.565,31.178L74.565,31.178L74.565,31.178z M79.111,37.483L79.111,37.483  L79.111,37.483z M60.826,36.705l1.905-4.214l2.238,3.376l-4.143,5.838V36.705z M64.722,33.738L64.722,33.738L64.722,33.738z   M60.182,43.503L60.182,43.503L60.182,43.503z M73.968,41.05l-0.829,1.167v-2.323L73.968,41.05z M73.139,38.126v-0.081l0.034-0.075  l1.439,2.171l-0.014,0.02L73.139,38.126z M78.596,44.286l-0.046-0.07l0.046-0.072V44.286z M75.252,39.241l-1.577-2.38l1.48-3.274  l1.661,3.45L75.252,39.241z M79.111,45.996L79.111,45.996L79.111,45.996z M78.596,42.236l-0.668,1.043l-2.066-3.116l1.465-2.064  l1.269,2.634V42.236z M78.007,37.139l0.111-0.156l0.477,0.666v0.712L78.007,37.139z M71.852,34.762v2.794l-0.256,0.184l0.256,0.358  v9.257l-2.737-5.683v-1.219l1.438-2.245l-0.433-0.278l-0.434-0.278l-0.571,0.892v-0.801l2.202-4.129L71.852,34.762z M68.599,37.616  L68.599,37.616L68.599,37.616z M68.085,38.702l-1.465-2.209l-0.336-0.697l0.944-1.33l-0.841-0.596l-0.614,0.865l-0.587-1.219  l-0.409,0.197l-1.535-2.315l-0.024,0.016l1.544-3.416l3.323,4.635V38.702z M60.182,36.877L60.182,36.877L60.182,36.877z   M59.538,30.516l-1.152-2.469l1.152-1.798V30.516z M60.826,43.486l1.12-1.579l2.648,3.694l-3.768,5.881V43.486z M62.576,41.019  l3.003-4.231l0.148,0.223l1.876,3.895l-2.411,3.763L62.576,41.019z M68.085,42.061v6.643l-2.247-3.135L68.085,42.061z   M69.115,44.045l2.737,5.683v4.232l-2.737-3.818V44.045z M73.139,43.999l1.464-2.063l2.21,3.083l-3.674,5.733V43.999z M79.626,43.13  l0.065-0.123l1.072,2.226v3.529l-1.138-1.587V43.13z M80.291,41.881l0.472-0.885v1.864L80.291,41.881z M69.115,35.555V30.36  l0.395-0.617l1.262,2.705L69.115,35.555z M68.599,30.21L68.599,30.21L68.599,30.21z M60.826,34.202v-3.396l1.654-3.1l-0.909-0.485  l-0.744,1.396v-4.377l0.587-0.915l2.656,3.705L60.826,34.202z M57.708,35.556L57.708,35.556L57.708,35.556z M57.194,45.186v6.666  l-6.327-8.827l3.018-4.71L57.194,45.186z M60.182,53.441L60.182,53.441L60.182,53.441z M72.495,52.711L72.495,52.711L72.495,52.711z   M81.407,40.223L81.407,40.223L81.407,40.223z M80.618,39.079l-0.957,1.494l-0.036-0.074v-5.283l1.138-1.775v5.366L80.618,39.079z   M81.407,35.121L81.407,35.121L81.407,35.121z M79.937,27.855l0.826-1.164v2.934L79.937,27.855z M80.621,31.755l-0.995,1.553v-3.685  L80.621,31.755z M79.111,32.806L79.111,32.806L79.111,32.806z M78.596,35.88l-2.746-3.831l1.126-2.491l1.62,3.364V35.88z   M76.374,28.388l-1.218,2.694l-2.017-2.814v-4.188l0.684-1.067l2.599,5.398L76.374,28.388z M71.852,26.471l-0.129-0.18l0.129-0.202  V26.471z M71.852,28.239v2.185l-0.474,0.888l-1.211-2.594l0.957-1.493L71.852,28.239z M68.085,30.864l-2.832-3.951l0.368-0.814  l-0.47-0.212l-0.47-0.212l-0.123,0.271L62.01,22.39l1.865-2.911l4.209,8.739V30.864z M58.223,26.392v-4.551l1.315-1.852v4.352  L58.223,26.392z M59.06,31.927l-0.836,1.568v-3.361L59.06,31.927z M57.194,36.642l-4.843-7.305l-0.43,0.285l-0.429,0.285  l5.702,8.601v4.306l-5.433-11.279l-0.928,0.447l2.947,6.118l-0.262-0.168l-0.434-0.278l-2.864,4.47l-1.817-2.535l-0.419,0.3  l-0.418,0.3l2.056,2.868l-3.447,5.38v-7.701l4.451-6.271l-0.84-0.596l-3.611,5.088v-3.272l4.256-7.979l-0.909-0.485l-3.347,6.275  v-1.107l2.843-6.29l-0.469-0.212l-0.469-0.212l-1.905,4.214V28.3l4.432-6.917l6.587,9.188V36.642z M45.145,28.803l-0.921-1.285  v-3.272l0.921,1.912V28.803z M42.937,30.516l-2.702-5.789l-0.467,0.218l-0.467,0.218l3.635,7.79v0.359l-2.634-3.974l-0.43,0.285  l-0.429,0.285l3.493,5.27V47.68l-6.675-13.859l2.163-4.055l-0.909-0.485l-1.808,3.39l-0.547-1.136l-0.928,0.447l0.875,1.816  l-0.938,1.759V30.36l5.11-7.973l3.658,5.104V30.516z M33.139,30.863l-0.169-0.235l0.169-0.373V30.863z M30.197,34.263l-0.579-0.874  v-5.671l2.169,3.027L30.197,34.263z M26.176,27.711l-0.071-0.153l-0.933,0.436l0.347,0.744l-2.64,4.12v-2.119l1.75-3.87  l-0.469-0.212l-0.332-0.15l2.448-3.45l1.522,2.124L26.176,27.711z M22.878,28.238v-0.395l0.492-0.693L22.878,28.238z M20.976,32.447  v-1.785l0.416,0.864L20.976,32.447z M20.332,32.222L20.332,32.222L20.332,32.222z M20.332,40.223L20.332,40.223L20.332,40.223z   M20.976,40.206l0.873-1.229v4.859l-0.873-1.316V40.206z M20.332,45.384L20.332,45.384L20.332,45.384z M22.878,52.953l1.478-2.77  l3.974,5.544v8.784l-5.452-8.223V52.953z M29.618,52.66l3.521-5.495v6.589l-3.521,6.603V52.66z M37.938,39.675l4.999,10.379v5.068  l-7.865-10.973L37.938,39.675z M43.58,56.904L43.58,56.904L43.58,56.904z M43.58,69.101L43.58,69.101L43.58,69.101z M44.224,68.288  c1.454-0.179,3.224-0.313,5.332-0.399c2.871-0.116,7.093,0.049,9.716,0.773l0.266,0.401v0.211c-1.853-0.586-5.035-0.906-8.168-0.906  c-0.602,0-1.203,0.012-1.792,0.036c-2.273,0.093-4.007,0.239-5.353,0.409V68.288z M61.084,70.172  c-0.055-0.098-0.149-0.192-0.258-0.283v-0.616c0.325,0.193,0.572,0.406,0.707,0.647c0.389,0.695,0.455,1.258,0.199,1.722  c-0.163,0.296-0.467,0.54-0.906,0.745V71.81c0.213-0.126,0.37-0.263,0.455-0.416C61.443,71.098,61.379,70.699,61.084,70.172z   M51.727,55.414l-0.858,0.569l7.643,11.53c-3.281-0.47-7.157-0.489-9.155-0.409c-2.028,0.083-3.712,0.2-5.132,0.339v-2.746  l6.436-12.068l-0.909-0.485l-5.527,10.364V53.39l0.921-1.437v3.27h0.515h0.515v-4.877l4.093-6.388l6.925,9.661v1.605h0.515h0.515  v-0.168l1.315,1.834v10.308L51.727,55.414z M72.495,62.658L72.495,62.658L72.495,62.658z M73.139,52.66l1.389-2.168l2.146,3.237  l-3.535,6.627V52.66z M78.596,52.316v2.448l-0.724-1.091L78.596,52.316z M79.626,48.943l1.138,1.587v7.503l-1.138-1.716V48.943z   M82.051,32.446v-1.013l1.554-2.426L82.051,32.446z M80.763,24.91l-1.138,1.603v-2.896l1.138-2.516V24.91z M79.111,20.877  L79.111,20.877L79.111,20.877z M60.182,17.905L60.182,17.905L60.182,17.905z M22.364,20.427L22.364,20.427L22.364,20.427z   M20.332,59.937L20.332,59.937L20.332,59.937z M28.974,66.413L28.974,66.413L28.974,66.413z M72.495,66.413L72.495,66.413  L72.495,66.413z M81.407,59.937L81.407,59.937L81.407,59.937z"/></svg>